<svg width="24" height="24" viewBox="0 0 24 24" fill="none" xmlns="http://www.w3.org/2000/svg">
<path d="M23.9983 12.0004C23.9983 18.0612 19.5059 23.0717 13.6698 23.8848C13.1242 23.9605 12.5659 24 11.9992 24C11.345 24 10.7026 23.9479 10.0771 23.847C4.36379 22.9271 0 17.9729 0 12.0004C0 5.37295 5.37276 0 12 0C18.6272 0 24 5.37295 24 12.0004H23.9983Z" fill="#0E0E10"/>
<path d="M14.2498 19.5V16.5C14.3542 15.5605 14.0848 14.6176 13.4998 13.875C15.7498 13.875 17.9998 12.375 17.9998 9.75C18.0598 8.8125 17.7973 7.89 17.2498 7.125C17.4598 6.2625 17.4598 5.3625 17.2498 4.5C17.2498 4.5 16.4998 4.5 14.9998 5.625C13.0198 5.25 10.9798 5.25 8.99984 5.625C7.49984 4.5 6.74984 4.5 6.74984 4.5C6.52484 5.3625 6.52484 6.2625 6.74984 7.125C6.20375 7.88691 5.9387 8.81459 5.99984 9.75C5.99984 12.375 8.24984 13.875 10.4998 13.875C10.2073 14.2425 9.98984 14.6625 9.86234 15.1125C9.73484 15.5625 9.69734 16.035 9.74984 16.5V19.5" stroke="white" stroke-linecap="round" stroke-linejoin="round"/>
<path d="M9.75 16.5C6.3675 18 6 15 4.5 15" stroke="white" stroke-linecap="round" stroke-linejoin="round"/>
</svg>
